<svg width="44" height="44" viewBox="0 0 44 44" fill="none" xmlns="http://www.w3.org/2000/svg">
<g clip-path="url(#clip0_115_128)">
<path d="M22 0C9.84958 0 0 9.84958 0 22C0 34.1504 9.84958 44 22 44C34.1504 44 44 34.1504 44 22C43.9817 9.84958 34.1321 0 22 0ZM34.6683 28.1508C34.4208 29.7733 33.0092 30.9512 31.3729 30.9512H12.6087C10.9725 30.9512 9.56083 29.7733 9.31333 28.1508C9.08417 26.6475 8.855 24.5529 8.83667 21.9817C8.855 19.4104 9.06583 17.3342 9.31333 15.8079C9.56083 14.19 10.9725 13.0075 12.6087 13.0075H31.3729C33.0092 13.0075 34.4208 14.19 34.6683 15.8079C34.8975 17.3158 35.1221 19.4104 35.145 21.9817C35.1221 24.5529 34.8975 26.6475 34.6683 28.1508Z" fill="#B91F33"/>
<path d="M19.2179 18.4204V25.5612L25.8683 22L19.2179 18.4204Z" fill="#B91F33"/>
</g>
<defs>
<clipPath id="clip0_115_128">
<rect width="44" height="44" fill="white"/>
</clipPath>
</defs>
</svg>
