<svg width="44" height="44" viewBox="0 0 44 44" fill="none" xmlns="http://www.w3.org/2000/svg">
<g clip-path="url(#clip0_115_123)">
<path d="M22 0C9.84958 0 0 9.84958 0 22C0 34.1504 9.84958 44 22 44C34.1504 44 44 34.1504 44 22C43.9817 9.84958 34.1321 0 22 0ZM34.8379 17.0454C34.8379 17.0454 35.2183 25.465 28.82 30.6854C19.2362 38.4771 8.89625 32.1521 8.89625 32.1521C8.89625 32.1521 11.4079 32.1887 13.64 31.6021C15.8492 31.0108 17.4487 29.5625 17.4487 29.5625C17.4487 29.5625 15.0287 29.0675 13.7729 28.1508C12.5125 27.2387 12.0175 25.4879 12.0175 25.4879C12.0175 25.4879 12.8562 25.5612 13.3696 25.5429C13.9058 25.5246 14.5337 25.2771 14.5337 25.2771C14.5337 25.2771 12.8012 25.0662 11.1787 23.2558C9.90458 21.8304 10.0008 19.4471 10.0008 19.4471C10.0008 19.4471 10.7617 19.9054 11.1604 20.0017C11.5637 20.1162 12.3429 20.1162 12.3429 20.1162C12.3429 20.1162 10.8212 19.2179 10.1521 16.8758C9.4875 14.5521 10.7617 12.1917 10.7617 12.1917C10.7617 12.1917 13.0304 14.9325 16.3808 16.6879C19.7312 18.4387 22.8937 18.3792 22.8937 18.3792C22.8937 18.3792 22.44 16.9904 23.2375 14.9325C24.0396 12.8746 25.8454 11.3896 28.6092 11.1787C31.3729 10.9542 33.1421 13.0487 33.1421 13.0487C33.1421 13.0487 33.9992 12.8975 34.9708 12.5354C35.9425 12.1917 36.9142 11.7333 36.9142 11.7333C36.9142 11.7333 36.5704 12.7829 35.9058 13.5987C35.2367 14.4192 34.4942 14.9142 34.4942 14.9142C34.4942 14.9142 35.3696 14.8592 36.2496 14.6117C37.125 14.3642 37.6017 14.1121 37.6017 14.1121C36.5887 15.7896 34.8379 17.0454 34.8379 17.0454Z" fill="#B91F33"/>
</g>
<defs>
<clipPath id="clip0_115_123">
<rect width="44" height="44" fill="white"/>
</clipPath>
</defs>
</svg>
