<svg width="44" height="44" viewBox="0 0 44 44" fill="none" xmlns="http://www.w3.org/2000/svg">
<g clip-path="url(#clip0_115_134)">
<path d="M22.1467 0.673828C10.2346 0.673828 0.577499 10.363 0.577499 22.3209C0.577499 33.0597 8.38291 41.9788 18.5992 43.6655V28.9897H13.1083V22.5638H18.5992V17.898C18.5992 12.838 22.6875 9.40508 27.7292 9.40508C29.9704 9.40508 31.3729 9.74425 31.3729 9.74425V15.1434H27.7292C26.2167 15.1434 24.9838 16.3763 24.9838 17.898V22.5638H30.8688L30.0483 28.9897H24.9838V43.7572C35.5392 42.3547 43.6792 33.2842 43.6792 22.3209C43.6975 10.363 34.045 0.673828 22.1467 0.673828Z" fill="#B91F33"/>
</g>
<defs>
<clipPath id="clip0_115_134">
<rect width="44" height="44" fill="white"/>
</clipPath>
</defs>
</svg>
